<svg xmlns="http://www.w3.org/2000/svg" viewBox="0 0 512 512">  <defs>
    <linearGradient id="monochrome" x1="0%" y1="0%" x2="0%" y2="100%">
      <stop offset="0%" style="stop-color:#1B3DA1;stop-opacity:1" />
      <stop offset="100%" style="stop-color:#3c8fff;stop-opacity:1" />
    </linearGradient>
  </defs><!--! Font Awesome Free 6.7.2 by @fontawesome - https://fontawesome.com License - https://fontawesome.com/license/free (Icons: CC BY 4.0, Fonts: SIL OFL 1.1, Code: MIT License) Copyright 2024 Fonticons, Inc. --><path fill="url(#monochrome)" d="M64 256l0-96 160 0 0 96L64 256zm0 64l160 0 0 96L64 416l0-96zm224 96l0-96 160 0 0 96-160 0zM448 256l-160 0 0-96 160 0 0 96zM64 32C28.7 32 0 60.7 0 96L0 416c0 35.3 28.7 64 64 64l384 0c35.3 0 64-28.7 64-64l0-320c0-35.3-28.7-64-64-64L64 32z"/></svg>