<svg xmlns="http://www.w3.org/2000/svg" viewBox="0 0 512 512">  <defs>
    <linearGradient id="monochrome" x1="0%" y1="0%" x2="0%" y2="100%">
      <stop offset="0%" style="stop-color:#1B3DA1;stop-opacity:1" />
      <stop offset="100%" style="stop-color:#3c8fff;stop-opacity:1" />
    </linearGradient>
  </defs><!--! Font Awesome Free 6.7.2 by @fontawesome - https://fontawesome.com License - https://fontawesome.com/license/free (Icons: CC BY 4.0, Fonts: SIL OFL 1.1, Code: MIT License) Copyright 2024 Fonticons, Inc. --><path fill="url(#monochrome)" d="M64 32C28.7 32 0 60.7 0 96L0 416c0 35.3 28.7 64 64 64l384 0c35.3 0 64-28.7 64-64l0-224c0-35.3-28.7-64-64-64L80 128c-8.8 0-16-7.2-16-16s7.2-16 16-16l368 0c17.7 0 32-14.3 32-32s-14.3-32-32-32L64 32zM416 272a32 32 0 1 1 0 64 32 32 0 1 1 0-64z"/></svg>