<svg xmlns="http://www.w3.org/2000/svg" viewBox="0 0 512 512">  <defs>
    <linearGradient id="monochrome" x1="0%" y1="0%" x2="0%" y2="100%">
      <stop offset="0%" style="stop-color:#1B3DA1;stop-opacity:1" />
      <stop offset="100%" style="stop-color:#3c8fff;stop-opacity:1" />
    </linearGradient>
  </defs><!--! Font Awesome Free 6.7.2 by @fontawesome - https://fontawesome.com License - https://fontawesome.com/license/free (Icons: CC BY 4.0, Fonts: SIL OFL 1.1, Code: MIT License) Copyright 2024 Fonticons, Inc. --><path fill="url(#monochrome)" d="M0 96C0 60.7 28.7 32 64 32l384 0c35.3 0 64 28.7 64 64l0 184.4c-17-15.2-39.4-24.4-64-24.4L64 256c-24.6 0-47 9.2-64 24.4L0 96zM64 288l384 0c35.3 0 64 28.7 64 64l0 64c0 35.3-28.7 64-64 64L64 480c-35.3 0-64-28.7-64-64l0-64c0-35.3 28.7-64 64-64zM320 416a32 32 0 1 0 0-64 32 32 0 1 0 0 64zm128-32a32 32 0 1 0 -64 0 32 32 0 1 0 64 0z"/></svg>