<svg xmlns="http://www.w3.org/2000/svg" viewBox="0 0 512 512">  <defs>
    <linearGradient id="monochrome" x1="0%" y1="0%" x2="0%" y2="100%">
      <stop offset="0%" style="stop-color:#1B3DA1;stop-opacity:1" />
      <stop offset="100%" style="stop-color:#3c8fff;stop-opacity:1" />
    </linearGradient>
  </defs><!--! Font Awesome Free 6.7.2 by @fontawesome - https://fontawesome.com License - https://fontawesome.com/license/free (Icons: CC BY 4.0, Fonts: SIL OFL 1.1, Code: MIT License) Copyright 2024 Fonticons, Inc. --><path fill="url(#monochrome)" d="M64 64c0-17.7-14.3-32-32-32S0 46.3 0 64L0 400c0 44.2 35.8 80 80 80l400 0c17.7 0 32-14.3 32-32s-14.3-32-32-32L80 416c-8.8 0-16-7.2-16-16L64 64zm96 288l288 0c17.7 0 32-14.3 32-32l0-68.2c0-7.6-2.7-15-7.7-20.8l-65.8-76.8c-12.1-14.2-33.7-15-46.9-1.8l-21 21c-10 10-26.4 9.2-35.4-1.6l-39.2-47c-12.6-15.1-35.7-15.4-48.7-.6L135.9 215c-5.1 5.8-7.9 13.3-7.9 21.1l0 84c0 17.7 14.3 32 32 32z"/></svg>